<svg xmlns="http://www.w3.org/2000/svg" xmlns:xlink="http://www.w3.org/1999/xlink" width="735.968" height="685.193" viewBox="0 0 735.968 685.193">
    <defs>
      <filter id="Rectangle_50" x="0" y="155.751" width="686" height="410" filterUnits="userSpaceOnUse">
        <feOffset dy="3" input="SourceAlpha"/>
        <feGaussianBlur stdDeviation="11" result="blur"/>
        <feFlood flood-opacity="0.161"/>
        <feComposite operator="in" in2="blur"/>
        <feComposite in="SourceGraphic"/>
      </filter>
      <linearGradient id="linear-gradient" x1="-0.049" y1="1.041" x2="1.029" y2="-0.074" gradientUnits="objectBoundingBox">
        <stop offset="0" stop-color="#deae03"/>
        <stop offset="1" stop-color="#d18503"/>
      </linearGradient>
    </defs>
    <g id="Group_11" data-name="Group 11" transform="translate(-617 -151.249)">
      <g id="confetti" transform="matrix(-0.035, 0.999, -0.999, -0.035, 1210.29, 297.258)">
        <g id="Group_5" data-name="Group 5" transform="translate(-130.547 -85.377)">
          <g id="Group_2" data-name="Group 2" transform="translate(0 455.667)">
            <path id="Path_3" data-name="Path 3" d="M91.235,383.156a11.549,11.549,0,0,1-4.972,2.815l-17.772,4.86a18.8,18.8,0,0,1-18.559-5.021l-9.295-9.681a18.8,18.8,0,0,1-4.262-18.749l5.75-18.895-23,5.945A11.608,11.608,0,0,1,13,322.037l17.772-4.86A18.8,18.8,0,0,1,49.334,322.2l9.295,9.681a18.8,18.8,0,0,1,4.263,18.748L56.241,369.7l23.9-6.12a11.61,11.61,0,0,1,11.1,19.579Z" transform="translate(-4.453 -316.493)" fill="#8bb6ef"/>
            <path id="Path_4" data-name="Path 4" d="M80.31,359.325l-.606,1.99L74.56,378.22a18.877,18.877,0,0,0,2.454,16.542c5.251-1.2,12.235-2.722,17.412-4.227l.853-2.445,5.8-16.626a18.855,18.855,0,0,0-2.941-17.207C92.843,355.831,85.625,357.835,80.31,359.325Z" transform="translate(-42.638 -337.332)" fill="#8388ef"/>
          </g>
          <g id="Group_3" data-name="Group 3" transform="matrix(-0.391, 0.921, -0.921, -0.391, 683.801, 478.862)">
            <path id="Path_5" data-name="Path 5" d="M7.285,85.983a11.554,11.554,0,0,0,5.663.756l18.3-2.125A18.8,18.8,0,0,0,46.594,73.028L51.6,60.578a18.8,18.8,0,0,0-3.044-18.984L36.172,26.21l23.554-3.07A11.609,11.609,0,1,0,57.049.078L38.747,2.2A18.8,18.8,0,0,0,23.4,13.789L18.394,26.24a18.8,18.8,0,0,0,3.044,18.984l13.288,15.21L10.271,63.677A11.61,11.61,0,0,0,7.285,85.983Z" transform="translate(0 0)" fill="#a183e2"/>
            <path id="Path_6" data-name="Path 6" d="M19.11,0l1.3,1.62L31.5,15.383a18.876,18.876,0,0,1,3.9,16.263c-5.32.846-12.367,2.042-17.732,2.579l-1.7-1.95L4.375,19.014A18.855,18.855,0,0,1,.68,1.953C6.178,1.437,13.622.6,19.11,0Z" transform="translate(17.062 26.21)" fill="#9762e2"/>
          </g>
          <g id="Group_4" data-name="Group 4" transform="translate(249.996 -61.559)">
            <path id="Path_7" data-name="Path 7" d="M198.315,223.4a11.554,11.554,0,0,0,4.4-3.643l10.874-14.874a18.8,18.8,0,0,0,1.922-19.13l-5.733-12.134a18.8,18.8,0,0,0-16-10.663l-19.7-1.36,13.749-19.37a11.608,11.608,0,0,0-18.742-13.7L158.21,143.4a18.8,18.8,0,0,0-1.922,19.13l5.733,12.134a18.8,18.8,0,0,0,16,10.663l20.189.582-14.234,20.149a11.61,11.61,0,0,0,14.34,17.345Z" transform="translate(-154.52 -123.765)" fill="#ffa585"/>
            <path id="Path_8" data-name="Path 8" d="M183.409,209.809l1.095-1.641,19.7,1.36a18.877,18.877,0,0,1,14.582,8.187c-2.661,3.983-5.476,7.86-8.353,11.694a15.623,15.623,0,0,0-1.8,3.069l-20.189-.582a18.855,18.855,0,0,1-15.03-8.879C176.773,218.634,180.122,214.244,183.409,209.809Z" transform="translate(-164.947 -170.338)" fill="#ef7c85"/>
          </g>
          <path id="Path_9" data-name="Path 9" d="M51.864,235.9l-9.733-4.867a5.879,5.879,0,0,1-2.629-7.887l4.867-9.733a5.878,5.878,0,0,1,7.886-2.629l9.733,4.867a5.879,5.879,0,0,1,2.629,7.887l-4.867,9.733a5.878,5.878,0,0,1-7.886,2.629Z" transform="translate(-28.639 4.678)" fill="#ffe266"/>
          <path id="Path_15" data-name="Path 15" d="M51.864,235.9l-9.733-4.867a5.879,5.879,0,0,1-2.629-7.887l4.867-9.733a5.878,5.878,0,0,1,7.886-2.629l9.733,4.867a5.879,5.879,0,0,1,2.629,7.887l-4.867,9.733a5.878,5.878,0,0,1-7.886,2.629Z" transform="translate(323.937 357.704)" fill="#78eac4"/>
        </g>
        <path id="Path_14" data-name="Path 14" d="M68.537,47.994,72.323,58.64a1.709,1.709,0,0,0,.888,1L82.669,63.9a1.887,1.887,0,0,1,0,3.333L73.21,71.5a1.708,1.708,0,0,0-.888,1L68.537,83.141a1.536,1.536,0,0,1-2.961,0L61.789,72.495a1.709,1.709,0,0,0-.888-1l-9.459-4.261a1.887,1.887,0,0,1,0-3.333L60.9,59.639a1.706,1.706,0,0,0,.888-1l3.786-10.646A1.536,1.536,0,0,1,68.537,47.994Z" transform="translate(-47.883 487.231)" fill="#cab4ef"/>
        <circle id="Ellipse_1" data-name="Ellipse 1" cx="8.267" cy="8.267" r="8.267" transform="translate(425.822 188.725) rotate(-22.514)" fill="#8bb6ef"/>
        <circle id="Ellipse_2" data-name="Ellipse 2" cx="3.566" cy="3.566" r="3.566" transform="translate(64.681 506.606)" fill="#ef8bbd"/>
        <circle id="Ellipse_3" data-name="Ellipse 3" cx="3.566" cy="3.566" r="3.566" transform="translate(418.689 -7.05)" fill="#ffe266"/>
        <circle id="Ellipse_4" data-name="Ellipse 4" cx="3.566" cy="3.566" r="3.566" transform="translate(-38.429 522.245)" fill="#ffe266"/>
      </g>
      <g transform="matrix(1, 0, 0, 1, 617, 151.25)" filter="url(#Rectangle_50)">
        <rect id="Rectangle_50-2" data-name="Rectangle 50" width="620" height="344" rx="19" transform="translate(33 185.75)" fill="#3e4577"/>
      </g>
      <text id="You_ve_won_the_lottery_" data-name="You&apos;ve won the lottery!" transform="translate(771 439)" fill="#deac03" font-size="34" font-family="SegoeUI, Segoe UI"><tspan x="0" y="0">You&apos;ve won the lottery!</tspan></text>
      <text id="Congratulations_" data-name="Congratulations!" transform="translate(960 396)" fill="#e6e8f6" font-size="20" font-family="SegoeUI-Bold, Segoe UI" font-weight="700" opacity="0.5"><tspan x="-78.687" y="0">Congratulations!</tspan></text>
      <rect id="Rectangle_51" data-name="Rectangle 51" width="378" height="78" rx="9" transform="translate(771 571)" fill="url(#linear-gradient)"/>
      <text id="Claim_now" data-name="Claim now" transform="translate(961 618)" fill="#e6e8f6" font-size="22" font-family="SegoeUI-Bold, Segoe UI" font-weight="700"><tspan x="-54.296" y="0">Claim now</tspan></text>
      <g id="Group_1" data-name="Group 1" transform="translate(49 190)">
        <rect id="Rectangle_3" data-name="Rectangle 3" width="42" height="50" rx="4" transform="translate(785 285)" fill="#313660"/>
        <rect id="Rectangle_4" data-name="Rectangle 4" width="42" height="50" rx="4" transform="translate(836 285)" fill="#313660"/>
        <rect id="Rectangle_5" data-name="Rectangle 5" width="43" height="50" rx="4" transform="translate(886 285)" fill="#313660"/>
        <rect id="Rectangle_6" data-name="Rectangle 6" width="42" height="50" rx="4" transform="translate(937 285)" fill="#313660"/>
        <rect id="Rectangle_7" data-name="Rectangle 7" width="42" height="50" rx="4" transform="translate(988 285)" fill="#313660"/>
        <text id="_4" data-name="4" transform="translate(806 320)" fill="#e6e8f6" font-size="26" font-family="SegoeUI-Bold, Segoe UI" font-weight="700"><tspan x="-7.478" y="0">4</tspan></text>
        <text id="_2" data-name="2" transform="translate(857 320)" fill="#e6e8f6" font-size="26" font-family="SegoeUI-Bold, Segoe UI" font-weight="700"><tspan x="-7.478" y="0">2</tspan></text>
        <text id="_3" data-name="3" transform="translate(908 320)" fill="#e6e8f6" font-size="26" font-family="SegoeUI-Bold, Segoe UI" font-weight="700"><tspan x="-7.478" y="0">3</tspan></text>
        <text id="_7" data-name="7" transform="translate(958 320)" fill="#e6e8f6" font-size="26" font-family="SegoeUI-Bold, Segoe UI" font-weight="700"><tspan x="-7.478" y="0">7</tspan></text>
        <text id="_" data-name="$" transform="translate(1009 318)" fill="#e6e8f6" font-size="18" font-family="SegoeUI-Bold, Segoe UI" font-weight="700"><tspan x="-5.177" y="0">$</tspan></text>
      </g>
    </g>
  </svg>
  