<svg xmlns="http://www.w3.org/2000/svg" xmlns:xlink="http://www.w3.org/1999/xlink" width="171.672" height="167.89" viewBox="0 0 171.672 167.89">
    <defs>
      <linearGradient id="linear-gradient" x1="0.5" y1="0.302" x2="0.5" y2="0.777" gradientUnits="objectBoundingBox">
        <stop offset="0" stop-color="#ffa325"/>
        <stop offset="1" stop-color="#ff7044"/>
      </linearGradient>
      <linearGradient id="linear-gradient-2" x1="0.489" y1="0.232" x2="0.616" y2="1.049" gradientUnits="objectBoundingBox">
        <stop offset="0" stop-color="#ffd945"/>
        <stop offset="0.304" stop-color="#ffcd3e"/>
        <stop offset="0.856" stop-color="#ffad2b"/>
        <stop offset="1" stop-color="#ffa325"/>
      </linearGradient>
      <linearGradient id="linear-gradient-3" x1="0.683" y1="1.097" x2="0.259" y2="-0.287" gradientUnits="objectBoundingBox">
        <stop offset="0" stop-color="#ffd945" stop-opacity="0"/>
        <stop offset="1" stop-color="#fbed21"/>
      </linearGradient>
      <linearGradient id="linear-gradient-4" x1="0.52" y1="0.655" x2="0.082" y2="-0.696" gradientUnits="objectBoundingBox">
        <stop offset="0" stop-color="#e87264" stop-opacity="0"/>
        <stop offset="1" stop-color="#ff7044"/>
      </linearGradient>
      <radialGradient id="radial-gradient" cx="0.356" cy="0.308" r="0.623" gradientTransform="translate(0)" gradientUnits="objectBoundingBox">
        <stop offset="0" stop-color="#ffd945"/>
        <stop offset="0.417" stop-color="#ffd744"/>
        <stop offset="0.628" stop-color="#ffcf3f"/>
        <stop offset="0.793" stop-color="#ffc237"/>
        <stop offset="0.933" stop-color="#ffaf2c"/>
        <stop offset="1" stop-color="#ffa325"/>
      </radialGradient>
      <linearGradient id="linear-gradient-5" x1="0.597" y1="0.597" x2="-0.073" y2="-0.073" xlink:href="#linear-gradient-3"/>
      <linearGradient id="linear-gradient-6" x1="0.696" y1="0.492" x2="1.68" y2="-0.34" xlink:href="#linear-gradient-4"/>
      <linearGradient id="linear-gradient-7" x1="0.5" y1="0.63" x2="0.5" y2="-0.385" gradientUnits="objectBoundingBox">
        <stop offset="0" stop-color="#fff" stop-opacity="0"/>
        <stop offset="1" stop-color="#fff"/>
      </linearGradient>
      <radialGradient id="radial-gradient-2" cx="0.356" cy="0.308" r="0.623" xlink:href="#radial-gradient"/>
      <linearGradient id="linear-gradient-10" x1="0.5" y1="0.63" x2="0.5" y2="-0.385" xlink:href="#linear-gradient-7"/>
      <radialGradient id="radial-gradient-3" cx="0.356" cy="0.308" r="0.623" xlink:href="#radial-gradient"/>
      <linearGradient id="linear-gradient-12" x1="0.696" y1="0.492" x2="1.68" y2="-0.34" xlink:href="#linear-gradient-4"/>
      <radialGradient id="radial-gradient-4" cx="0.356" cy="0.308" r="0.623" gradientTransform="translate(0)" gradientUnits="objectBoundingBox">
        <stop offset="0" stop-color="#ffa325"/>
        <stop offset="0.424" stop-color="#ffa126"/>
        <stop offset="0.638" stop-color="#ff992b"/>
        <stop offset="0.805" stop-color="#ff8c33"/>
        <stop offset="0.947" stop-color="#ff793e"/>
        <stop offset="1" stop-color="#ff7044"/>
      </radialGradient>
      <linearGradient id="linear-gradient-14" x1="0.597" y1="0.597" x2="-0.073" y2="-0.073" gradientUnits="objectBoundingBox">
        <stop offset="0" stop-color="#ff7044" stop-opacity="0"/>
        <stop offset="1" stop-color="#ffd945"/>
      </linearGradient>
      <linearGradient id="linear-gradient-15" x1="0.696" y1="0.492" x2="1.68" y2="-0.34" gradientUnits="objectBoundingBox">
        <stop offset="0" stop-color="#f35227" stop-opacity="0"/>
        <stop offset="1" stop-color="#f35227"/>
      </linearGradient>
      <linearGradient id="linear-gradient-18" x1="0.696" y1="0.492" x2="1.68" y2="-0.34" xlink:href="#linear-gradient-15"/>
      <linearGradient id="linear-gradient-20" x1="0.5" y1="0.124" x2="0.5" y2="1.481" gradientUnits="objectBoundingBox">
        <stop offset="0" stop-color="#ff7044"/>
        <stop offset="1" stop-color="#f82814"/>
      </linearGradient>
      <linearGradient id="linear-gradient-21" x1="0.5" y1="0.124" x2="0.5" y2="1.481" xlink:href="#linear-gradient-2"/>
      <linearGradient id="linear-gradient-23" x1="0.427" y1="-0.318" x2="0.592" y2="1.032" gradientUnits="objectBoundingBox">
        <stop offset="0" stop-color="#e4f2ff"/>
        <stop offset="1" stop-color="#b2cbff"/>
      </linearGradient>
      <linearGradient id="linear-gradient-24" x1="0.687" y1="1.142" x2="0.311" y2="-0.587" xlink:href="#linear-gradient-23"/>
      <linearGradient id="linear-gradient-25" x1="0.879" y1="0.955" x2="1.479" y2="1.911" xlink:href="#linear-gradient-20"/>
      <linearGradient id="linear-gradient-26" x1="0.496" y1="0.644" x2="1.001" y2="1.394" xlink:href="#linear-gradient-20"/>
      <linearGradient id="linear-gradient-27" x1="0.458" y1="0.436" x2="1.04" y2="1.141" xlink:href="#linear-gradient-20"/>
      <linearGradient id="linear-gradient-28" x1="0.275" y1="0.291" x2="0.825" y2="0.978" xlink:href="#linear-gradient-20"/>
      <linearGradient id="linear-gradient-29" x1="0.161" y1="0.157" x2="0.738" y2="0.859" xlink:href="#linear-gradient-20"/>
      <linearGradient id="linear-gradient-30" x1="0.12" y1="0.008" x2="0.708" y2="0.793" xlink:href="#linear-gradient-20"/>
      <linearGradient id="linear-gradient-31" x1="0.267" y1="-0.222" x2="0.827" y2="0.751" xlink:href="#linear-gradient-20"/>
      <linearGradient id="linear-gradient-32" x1="0.5" y1="0.384" x2="0.5" y2="1.412" gradientUnits="objectBoundingBox">
        <stop offset="0" stop-color="#92f37f"/>
        <stop offset="1" stop-color="#4ab272"/>
      </linearGradient>
      <linearGradient id="linear-gradient-33" x1="0.5" y1="0.384" x2="0.5" y2="1.412" gradientUnits="objectBoundingBox">
        <stop offset="0" stop-color="#00adfb"/>
        <stop offset="1" stop-color="#3f3ced"/>
      </linearGradient>
      <linearGradient id="linear-gradient-34" x1="18.589" y1="-3.818" x2="18.589" y2="-3.226" xlink:href="#linear-gradient-33"/>
      <linearGradient id="linear-gradient-35" x1="-16.229" y1="23.737" x2="-16.229" y2="24.33" xlink:href="#linear-gradient-32"/>
      <linearGradient id="linear-gradient-36" x1="-2.873" y1="-0.588" x2="-2.873" y2="-0.308" xlink:href="#linear-gradient-32"/>
      <linearGradient id="linear-gradient-37" x1="1.705" y1="-0.449" x2="1.705" y2="0.017" xlink:href="#linear-gradient-33"/>
      <linearGradient id="linear-gradient-38" x1="-16.006" y1="-1.075" x2="-16.006" y2="-0.4" xlink:href="#linear-gradient-2"/>
      <linearGradient id="linear-gradient-39" x1="0.5" y1="0.384" x2="0.5" y2="1.412" xlink:href="#linear-gradient-2"/>
      <linearGradient id="linear-gradient-40" x1="0.5" y1="0.384" x2="0.5" y2="1.412" xlink:href="#linear-gradient-32"/>
      <linearGradient id="linear-gradient-41" x1="3.297" y1="-7.705" x2="3.297" y2="-7.466" xlink:href="#linear-gradient-33"/>
    </defs>
    <g id="jackpot" transform="translate(0.002 -5.618)">
      <path id="Path_53" data-name="Path 53" d="M189.069,56.794l-.1.044a6.842,6.842,0,0,1-9.346-7.4l.7-4.585-7.782,6.75a11.193,11.193,0,0,1-9.795,2.845,29.534,29.534,0,0,1-7.777-6.027s-2.395-3.119-2.644-3.682l-3.85-8.693-3.85,8.693c-.249.563-2.644,3.682-2.644,3.682a29.526,29.526,0,0,1-7.777,6.027,11.193,11.193,0,0,1-9.795-2.845l-7.782-6.75.7,4.585a6.842,6.842,0,0,1-9.346,7.4l-.1-.044L94.754,51.171l9.762,31.488h87.917L202.2,51.171Z" transform="translate(-62.86 -20.189)" fill="url(#linear-gradient)"/>
      <path id="Path_54" data-name="Path 54" d="M181.945,56.163,196.5,47.436,185.676,96.308H88.165L77.337,47.436,91.9,56.163a27.891,27.891,0,0,0,37.822-8.873l7.2-11.239,7.2,11.239a27.891,27.891,0,0,0,37.822,8.873Z" transform="translate(-51.306 -20.188)" fill="url(#linear-gradient-2)"/>
      <path id="Path_55" data-name="Path 55" d="M109.7,75.3l-12.329-7.39a1.119,1.119,0,0,0-1.667,1.2l9.1,41.062h93.039l8.617-38.895L199.754,75.3c-12.034,7.213-28.6,4.307-37.227-6.358-2.891-2.026-8.929-11.99-8.929-11.99l-6.072,9.475A27.891,27.891,0,0,1,109.7,75.3Z" transform="translate(-63.474 -34.055)" fill="url(#linear-gradient-3)"/>
      <path id="Path_56" data-name="Path 56" d="M313.93,47.437l-14.559,8.727A27.891,27.891,0,0,1,261.55,47.29l-7.2-11.239V96.309H303.1Z" transform="translate(-168.732 -20.189)" fill="url(#linear-gradient-4)"/>
      <circle id="Ellipse_7" data-name="Ellipse 7" cx="7.547" cy="7.547" r="7.547" transform="translate(78.068 5.618)" fill="url(#radial-gradient)"/>
      <path id="Path_57" data-name="Path 57" d="M247.807,14.762a6.737,6.737,0,1,1-6.737-6.737,6.737,6.737,0,0,1,6.737,6.737Z" transform="translate(-155.456 -1.597)" fill="url(#linear-gradient-5)"/>
      <path id="Path_58" data-name="Path 58" d="M244.418,7.982a7.549,7.549,0,0,1-10.127,10.127A7.548,7.548,0,1,0,244.418,7.982Z" transform="translate(-155.427 -1.568)" fill="url(#linear-gradient-6)"/>
      <path id="Path_59" data-name="Path 59" d="M249.393,11.531c0,1.937-2.285,3.506-5.1,3.506s-5.1-1.57-5.1-3.506,2.285-3.507,5.1-3.507S249.393,9.594,249.393,11.531Z" transform="translate(-158.675 -1.596)" fill="url(#linear-gradient-7)"/>
      <circle id="Ellipse_8" data-name="Ellipse 8" cx="7.547" cy="7.547" r="7.547" transform="translate(18.484 19.901)" fill="url(#radial-gradient-2)"/>
      <circle id="Ellipse_9" data-name="Ellipse 9" cx="6.737" cy="6.737" r="6.737" transform="translate(19.294 20.712)" fill="url(#linear-gradient-5)"/>
      <path id="Path_60" data-name="Path 60" d="M67.41,50.416A7.549,7.549,0,0,1,57.283,60.543,7.548,7.548,0,1,0,67.41,50.416Z" transform="translate(-38.002 -29.718)" fill="url(#linear-gradient-6)"/>
      <path id="Path_61" data-name="Path 61" d="M72.384,53.965c0,1.937-2.285,3.507-5.1,3.507s-5.1-1.57-5.1-3.507,2.285-3.507,5.1-3.507S72.384,52.028,72.384,53.965Z" transform="translate(-41.25 -29.746)" fill="url(#linear-gradient-10)"/>
      <circle id="Ellipse_10" data-name="Ellipse 10" cx="7.547" cy="7.547" r="7.547" transform="translate(137.651 19.901)" fill="url(#radial-gradient-3)"/>
      <circle id="Ellipse_11" data-name="Ellipse 11" cx="6.737" cy="6.737" r="6.737" transform="translate(138.461 20.712)" fill="url(#linear-gradient-5)"/>
      <path id="Path_62" data-name="Path 62" d="M421.428,50.416A7.549,7.549,0,0,1,411.3,60.543a7.548,7.548,0,1,0,10.127-10.127Z" transform="translate(-272.854 -29.718)" fill="url(#linear-gradient-12)"/>
      <path id="Path_63" data-name="Path 63" d="M426.4,53.965c0,1.937-2.285,3.507-5.1,3.507s-5.1-1.57-5.1-3.507,2.285-3.507,5.1-3.507S426.4,52.028,426.4,53.965Z" transform="translate(-276.101 -29.746)" fill="url(#linear-gradient-10)"/>
      <circle id="Ellipse_12" data-name="Ellipse 12" cx="7.547" cy="7.547" r="7.547" transform="translate(46.618 16.672)" fill="url(#radial-gradient-4)"/>
      <circle id="Ellipse_13" data-name="Ellipse 13" cx="6.737" cy="6.737" r="6.737" transform="translate(47.428 17.482)" fill="url(#linear-gradient-14)"/>
      <path id="Path_64" data-name="Path 64" d="M150.987,40.82A7.549,7.549,0,0,1,140.86,50.947,7.548,7.548,0,1,0,150.987,40.82Z" transform="translate(-93.446 -23.353)" fill="url(#linear-gradient-15)"/>
      <path id="Path_65" data-name="Path 65" d="M155.961,44.369c0,1.937-2.285,3.506-5.1,3.506s-5.1-1.57-5.1-3.506,2.285-3.507,5.1-3.507S155.961,42.432,155.961,44.369Z" transform="translate(-96.694 -23.38)" fill="url(#linear-gradient-7)"/>
      <circle id="Ellipse_14" data-name="Ellipse 14" cx="7.547" cy="7.547" r="7.547" transform="translate(109.518 16.672)" fill="url(#radial-gradient-4)"/>
      <circle id="Ellipse_15" data-name="Ellipse 15" cx="6.737" cy="6.737" r="6.737" transform="translate(110.328 17.482)" fill="url(#linear-gradient-14)"/>
      <path id="Path_66" data-name="Path 66" d="M337.85,40.82a7.549,7.549,0,0,1-10.127,10.127A7.548,7.548,0,1,0,337.85,40.82Z" transform="translate(-217.409 -23.353)" fill="url(#linear-gradient-18)"/>
      <path id="Path_67" data-name="Path 67" d="M342.825,44.369c0,1.937-2.285,3.506-5.1,3.506s-5.1-1.57-5.1-3.506,2.285-3.507,5.1-3.507S342.825,42.432,342.825,44.369Z" transform="translate(-220.657 -23.38)" fill="url(#linear-gradient-7)"/>
      <path id="Path_68" data-name="Path 68" d="M101.638,199.806H204.445v14.206H101.638Z" transform="translate(-67.427 -128.822)" fill="url(#linear-gradient-20)"/>
      <path id="Path_69" data-name="Path 69" d="M198.239,241.923H95.692a3.213,3.213,0,0,1,0-6.426H198.239a3.213,3.213,0,0,1,0,6.426Z" transform="translate(-61.351 -152.499)" fill="url(#linear-gradient-21)"/>
      <path id="Path_70" data-name="Path 70" d="M198.239,193.809H95.692a3.213,3.213,0,1,1,0-6.426H198.239a3.213,3.213,0,1,1,0,6.426Z" transform="translate(-61.351 -120.581)" fill="url(#linear-gradient-21)"/>
      <path id="Path_71" data-name="Path 71" d="M170.668,216.853a5.042,5.042,0,0,0-4.415-2.492q-9.336.038-18.671.069a4.413,4.413,0,0,0-2.455,1.121,4.506,4.506,0,0,1-4.8.46,15.2,15.2,0,0,0-6.323-1.541c-.1,0-.192,0-.288,0a12.68,12.68,0,0,0-10.114,5.12l-.049.067a1.2,1.2,0,0,1-1.942.011l-.011-.014a12.846,12.846,0,0,0-10.161-5.137l-9,.009a5.437,5.437,0,0,0-4.6,2.485c-.017.025-.031.051-.048.077a6.319,6.319,0,0,0-4.871-2.556c-1.02,0-3.533.361-4.885,3.685l-.017.039a1.2,1.2,0,0,1-2.2.049,6.077,6.077,0,0,0-1.529-2.063,7.064,7.064,0,0,0-9.193-.019,6.063,6.063,0,0,0-1.076,1.222,1.678,1.678,0,0,1-2.487.307A13.823,13.823,0,0,0,63,214.517c-.1,0-.2,0-.293,0a12.887,12.887,0,0,0-10.049,5.228,15.771,15.771,0,0,0-2.44,4.7,1.641,1.641,0,0,1-3.171-.218c-.272-1.455-.532-2.859-.743-4.028a7.2,7.2,0,0,0-2.865-4.607,8.015,8.015,0,0,0-4.782-1.5,8.4,8.4,0,0,0-4.712,1.394,7.232,7.232,0,0,0-3.054,4.366q-.484,2-.965,3.968a1.06,1.06,0,0,1-2.089-.278l.068-2.951a5.773,5.773,0,0,0-2.028-4.679,6.509,6.509,0,0,0-4.21-1.49l-7.584-.027A5.01,5.01,0,0,0,9.6,217.142,8.246,8.246,0,0,0,8.64,221a8.542,8.542,0,0,0,.865,4.019,5.178,5.178,0,0,0,4.174,2.959l.6.053-.318,16.227s.014.193.015.211a1.429,1.429,0,0,1-.114-.1.843.843,0,0,1-.226-.372,8.756,8.756,0,0,1-.3-1.147c-.03-.191-.088-.619-.134-1.341-.111-1.7-.972-4.78-5.5-6.262a8.963,8.963,0,0,0-2.776-.507,4.96,4.96,0,0,0-2.454.6c-1.141.639-2.5,2.066-2.468,5.238a17.349,17.349,0,0,0,3.526,10.066c1.837,2.473,4.849,5.769,8.767,7.426a14.751,14.751,0,0,0,5.642,1.37,8.174,8.174,0,0,0,4.289-1.164,9.276,9.276,0,0,0,1.728,2.965,10.18,10.18,0,0,0,4.293,3.163,6.148,6.148,0,0,0,2.064.384,4.654,4.654,0,0,0,4.582-3.785q.442-1.9.88-3.811c1.236.3,2.441.587,3.627.854q.474,3.095.947,6.195a6.088,6.088,0,0,0,4.715,5.219,7.006,7.006,0,0,0,1.669.2A7.126,7.126,0,0,0,50.7,268.43a6.85,6.85,0,0,0,1.5-1.335,14.266,14.266,0,0,0,9.566,6.024,12.868,12.868,0,0,0,1.53.092,12.462,12.462,0,0,0,9.506-4.305,6.479,6.479,0,0,0,1.916,3.445,7.074,7.074,0,0,0,4.632,1.924q.146.005.29.006a6.807,6.807,0,0,0,4.5-1.648,6.474,6.474,0,0,0,2.21-5.112.861.861,0,0,1,1.658-.326q.683,1.66,1.361,3.3c1.466,3.7,4.278,4.1,5.421,4.1.1,0,.207,0,.312-.008a6.652,6.652,0,0,0,4.551-2.3,6.6,6.6,0,0,0,3.786,1.173,7.546,7.546,0,0,0,.812-.044,7.367,7.367,0,0,0,4.458-2.137,6.857,6.857,0,0,0,1.978-5.069l-.141-10.821a1.469,1.469,0,0,1,1.321-1.479h0a14.374,14.374,0,0,0,7.467-3.232.816.816,0,0,1,1.334.616c.07,4.38.6,9.878,4.123,13.535a9.682,9.682,0,0,0,7.241,3.019,15.043,15.043,0,0,0,3.867-.547,17.325,17.325,0,0,0,9.593-7.414c2.693-4.246,3.09-9.225,3.135-13.089v-.06l-.366-15.423,0-.061q-.039-.649-.094-1.315a1.119,1.119,0,0,1,1.028-1.21l.026,0a1.12,1.12,0,0,1,1.207,1.1l.476,24.1a4.643,4.643,0,0,0,3.594,4.679,5.712,5.712,0,0,0,1.311.15,7.5,7.5,0,0,0,3.2-.789,10.241,10.241,0,0,0,3.361-2.551,6.588,6.588,0,0,0,1.751-4.46l-.276-20.683a3.065,3.065,0,0,1,2.759-3.091l.028,0a5.218,5.218,0,0,0,4.05-2.676,7.571,7.571,0,0,0,.993-3.865A7.188,7.188,0,0,0,170.668,216.853Z" transform="translate(0 -138.3)" fill="url(#linear-gradient-23)"/>
      <path id="Path_72" data-name="Path 72" d="M172.546,221.045a3.344,3.344,0,0,0-2.964-1.677q-9.337.038-18.673.069a3.274,3.274,0,0,0-3.031,2.158,7.883,7.883,0,0,0-.593,3.047,10.689,10.689,0,0,0-.956-1.251,12.631,12.631,0,0,0-9.039-3.915c-.083,0-.165,0-.248,0a10.985,10.985,0,0,0-8.761,4.44,13.994,13.994,0,0,0-2.3,5.228,15.665,15.665,0,0,0-2.41-5.173,11.167,11.167,0,0,0-8.852-4.449l-8.953.01a3.794,3.794,0,0,0-3.2,1.745,5.731,5.731,0,0,0-.962,3.333v.081a8.829,8.829,0,0,0-1.315-2.616c-1.22-1.684-2.578-2.538-4.038-2.538-.844,0-2.4.345-3.323,2.633-1.73,4.14-3.345,7.982-4.875,11.6l.016-9.126a4.832,4.832,0,0,0-1.565-3.813,5.379,5.379,0,0,0-6.977-.012,4.83,4.83,0,0,0-1.593,3.793l-.029,4.787a15.438,15.438,0,0,0-2.568-5.411,11.9,11.9,0,0,0-9.059-4.46c-.083,0-.165,0-.248,0a11.2,11.2,0,0,0-8.71,4.567c-2.815,3.676-3.254,8.461-3.462,13.048l-.35,18c-1.688-9.708-3.563-20.381-5.537-31.3a5.476,5.476,0,0,0-2.193-3.554,6.363,6.363,0,0,0-3.8-1.184,6.738,6.738,0,0,0-3.782,1.115,5.492,5.492,0,0,0-2.345,3.355c-2.393,9.891-4.718,19.108-7.056,27.982.058-.619.1-1.22.136-1.783l.019-.289.59-25.607a4.043,4.043,0,0,0-1.423-3.346,4.781,4.781,0,0,0-3.135-1.1L17.4,219.4a3.328,3.328,0,0,0-3,1.864,6.579,6.579,0,0,0-.755,3.081,6.877,6.877,0,0,0,.684,3.234,3.482,3.482,0,0,0,2.819,2.041c.879.078,1.5.133,2.165.19l-.347,17.725.006.078a2.909,2.909,0,0,1-.517,2.07.577.577,0,0,1-.463.209,1.713,1.713,0,0,1-.614-.144A4.206,4.206,0,0,1,16,248.9a2.526,2.526,0,0,1-.654-1.071,10.192,10.192,0,0,1-.361-1.39c-.042-.268-.1-.745-.151-1.495-.1-1.56-.937-3.654-4.343-4.768a7.338,7.338,0,0,0-2.252-.423,3.3,3.3,0,0,0-1.629.389c-1.082.606-1.622,1.869-1.606,3.752A15.655,15.655,0,0,0,8.2,252.965c1.712,2.305,4.5,5.37,8.07,6.879a13.208,13.208,0,0,0,4.985,1.237,6.48,6.48,0,0,0,3.982-1.3,7.356,7.356,0,0,0,1.967-2.262l-.2.745-.017.07a4.821,4.821,0,0,0-.14.93,6.34,6.34,0,0,0,1.715,4.216,8.527,8.527,0,0,0,3.571,2.661,4.408,4.408,0,0,0,1.5.285,2.946,2.946,0,0,0,2.939-2.48q.636-2.739,1.262-5.481c2.216.562,4.323,1.06,6.379,1.51q.561,3.665,1.121,7.333a4.415,4.415,0,0,0,3.45,3.838,5.319,5.319,0,0,0,1.267.156,5.469,5.469,0,0,0,3.048-.963,4.805,4.805,0,0,0,2.214-3.706,15.045,15.045,0,0,0,1.156,2.169,12.75,12.75,0,0,0,8.826,5.958,11.184,11.184,0,0,0,1.328.079,10.754,10.754,0,0,0,8.246-3.738,14.813,14.813,0,0,0,2.816-5.77l-.032,5.239a5.085,5.085,0,0,0,1.545,3.864,5.339,5.339,0,0,0,3.543,1.47c.076,0,.152,0,.227,0a5.076,5.076,0,0,0,3.4-1.242,4.837,4.837,0,0,0,1.621-3.835l.023-12.766.044-.092c2.143,5.333,4.184,10.335,6.195,15.182,1.045,2.665,2.87,3.062,3.865,3.062.073,0,.147,0,.221-.006a5.5,5.5,0,0,0,4.128-2.652c.118-.166.228-.335.334-.5a4.2,4.2,0,0,0,.921,1,4.853,4.853,0,0,0,3.046,1.028,5.8,5.8,0,0,0,.63-.035,5.62,5.62,0,0,0,3.448-1.654,5.208,5.208,0,0,0,1.484-3.855l-.179-13.723c.9-.08,1.671-.155,2.847-.274a12.6,12.6,0,0,0,8.964-5.507,15.706,15.706,0,0,0,1.56-3.114l.162,7.652c.065,4.071.539,9.159,3.652,12.392a8.053,8.053,0,0,0,6.026,2.5,13.379,13.379,0,0,0,3.436-.491,15.581,15.581,0,0,0,8.6-6.686c2.465-3.887,2.83-8.565,2.872-12.206l-.363-15.363,0-.061a34.188,34.188,0,0,0-.558-4.692,3.005,3.005,0,0,0,1.637.484q.121,0,.244-.009c1.38-.1,2.772-.214,4.155-.327l.535,27.083a2.986,2.986,0,0,0,2.3,3.071,4.041,4.041,0,0,0,.924.105,5.766,5.766,0,0,0,2.48-.626,8.569,8.569,0,0,0,2.811-2.134,4.917,4.917,0,0,0,1.337-3.331l-.335-25.053c1.453-.137,2.914-.279,4.362-.425a3.572,3.572,0,0,0,2.761-1.847,5.912,5.912,0,0,0,.763-3.017,5.516,5.516,0,0,0-.76-2.9ZM40.152,248.033q.639-2.882,1.281-5.817c.322,2.041.649,4.119.982,6.246Q41.28,248.25,40.152,248.033Zm37.275,6.021a4.861,4.861,0,0,0-3.974-2q-.232-.014-.451-.014c-2.825,0-4.562,1.712-4.765,4.7-.076,1.122-.158,1.819-.214,2.206a14.671,14.671,0,0,1-.441,1.9,1.691,1.691,0,0,1-.513.9,1.143,1.143,0,0,1-.645.153,2.757,2.757,0,0,1-.3-.018c-2.686-.3-2.42-5.477-2.408-5.7l0-.035.3-18.484v-.072c-.045-1.694.3-3.807,1.178-4.707a1.264,1.264,0,0,1,.988-.409l.095,0c.8.037,2.155.713,2.185,4.829a4.8,4.8,0,0,0,5,5.156c.092,0,.183.005.272.005a4.405,4.405,0,0,0,3.787-1.723,4.028,4.028,0,0,0,.318-.52l-.089,14.41a4.52,4.52,0,0,0-.322-.575ZM94.6,244.227c1.963-4.126,4.072-8.59,6.782-14.35l.028-.063a6.921,6.921,0,0,0,.237-.656l.3,33.072c-2.37-5.687-4.79-11.616-7.346-18Zm19.915-.432c-1.026.078-1.742.13-2.523.183l-.15-11.5c.824-.022,1.558-.044,2.62-.077h.035a1.445,1.445,0,0,1,1.107.43c.736.74,1.188,2.522,1.178,4.65l.014.831c.059,1.57-.043,5.241-2.282,5.481Zm23.158,13.413a1.444,1.444,0,0,1-.4.069.585.585,0,0,1-.467-.217,6.01,6.01,0,0,1-.963-3.678v-.043l-.4-17.056,0-.074c-.1-1.5.16-3.418.97-4.324a1.485,1.485,0,0,1,1.124-.518l.112,0a1.6,1.6,0,0,1,1.554,1.068,7.179,7.179,0,0,1,.611,3.108l.394,16.233C140.247,252.857,140.2,256.449,137.669,257.208Z" transform="translate(-3.322 -141.621)" fill="url(#linear-gradient-24)"/>
      <path id="Path_73" data-name="Path 73" d="M10.018,247.8c-.01-1.229.247-1.989.744-2.267a3.419,3.419,0,0,1,2.533.165c2.024.662,3.085,1.744,3.184,3.275.044.687.1,1.239.168,1.648a12.028,12.028,0,0,0,.418,1.633,4.208,4.208,0,0,0,1.082,1.77,5.866,5.866,0,0,0,1.927,1.211c2.7,1.093,4.086-1.369,3.907-3.822q.188-9.613.376-19.226c-1.494-.126-2.241-.19-3.733-.323a1.806,1.806,0,0,1-1.464-1.122,5.187,5.187,0,0,1-.5-2.449,4.882,4.882,0,0,1,.551-2.3,1.664,1.664,0,0,1,1.528-.983l7.565.027a3.122,3.122,0,0,1,2.059.707,2.4,2.4,0,0,1,.818,2.012l-.589,25.57c-.21,3.123-.4,7.053-3.04,9.034-2.237,1.68-4.974.838-7.3-.145a19.185,19.185,0,0,1-7.374-6.331A14.079,14.079,0,0,1,10.018,247.8Z" transform="translate(-6.647 -145.541)" fill="url(#linear-gradient-25)"/>
      <path id="Path_74" data-name="Path 74" d="M74.9,262.631a3.608,3.608,0,0,1,.1-.6q4.667-17.31,8.857-34.741a3.823,3.823,0,0,1,1.636-2.345,5.062,5.062,0,0,1,2.852-.835,4.686,4.686,0,0,1,2.812.866,3.83,3.83,0,0,1,1.521,2.5q3.731,20.63,7.269,41.3a5.845,5.845,0,0,1,.073.759,3.175,3.175,0,0,1-1.487,2.729,3.645,3.645,0,0,1-2.984.577,2.745,2.745,0,0,1-2.186-2.458q-.646-4.24-1.3-8.48c-3.06-.649-6.1-1.382-9.128-2.171q-.814,3.584-1.645,7.164c-.258,1.094-1,1.427-2.225.989a6.868,6.868,0,0,1-2.849-2.16A4.7,4.7,0,0,1,74.9,262.631Zm9.6-9.951q3.155.623,6.316,1.194-1.362-8.739-2.76-17.471Q86.307,244.548,84.5,252.68Z" transform="translate(-49.69 -144.945)" fill="url(#linear-gradient-26)"/>
      <path id="Path_75" data-name="Path 75" d="M154.1,259.349l.349-17.986c.188-4.134.526-8.717,3.116-12.1a9.534,9.534,0,0,1,7.575-3.9,10.288,10.288,0,0,1,7.771,3.807c2.206,2.85,3.013,6.959,2.975,10.539-.022,2.06-.289,3.464-.82,4.192a2.9,2.9,0,0,1-2.635,1.027,3.156,3.156,0,0,1-3.372-3.483c-.018-2.494-.58-6.353-3.794-6.5-3.41-.157-4.091,4.33-4.024,6.844q-.149,9.225-.3,18.449c-.156,2.728.491,7.091,3.905,7.47a3.022,3.022,0,0,0,2.065-.409,3.151,3.151,0,0,0,1.2-1.835,16.239,16.239,0,0,0,.49-2.126c.08-.562.159-1.342.227-2.33.151-2.211,1.287-3.246,3.432-3.116a3.256,3.256,0,0,1,2.681,1.264,7.735,7.735,0,0,1,.762,4.254c-.1,3.667-.8,7.847-3.225,10.776a9.142,9.142,0,0,1-8.074,3.06,11.1,11.1,0,0,1-7.612-5.2c-2.413-3.726-2.663-8.353-2.692-12.694Z" transform="translate(-102.227 -145.773)" fill="url(#linear-gradient-27)"/>
      <path id="Path_76" data-name="Path 76" d="M225.828,274.768q.141-22.985.282-45.969a3.19,3.19,0,0,1,1.011-2.528,3.693,3.693,0,0,1,4.761,0,3.2,3.2,0,0,1,.991,2.543l-.031,17.433q4.112-9.607,8.132-19.251.644-1.6,1.768-1.6,1.34,0,2.672,1.841a6.659,6.659,0,0,1,1.349,3.928,5.43,5.43,0,0,1-.419,2.169q-3.533,7.512-7.1,15.009,4.536,11.352,9.267,22.622a5.077,5.077,0,0,1,.371,1.847,6.589,6.589,0,0,1-1.307,3.948,3.921,3.921,0,0,1-2.847,1.947q-1.61.088-2.424-1.988-3.881-9.358-7.631-18.768c-.743,1.567-1.116,2.349-1.862,3.909q-.012,6.573-.024,13.147a3.2,3.2,0,0,1-1.033,2.558,3.447,3.447,0,0,1-2.463.832,3.682,3.682,0,0,1-2.455-1.016,3.389,3.389,0,0,1-1.012-2.622Z" transform="translate(-149.813 -145.803)" fill="url(#linear-gradient-28)"/>
      <path id="Path_77" data-name="Path 77" d="M297.392,274.414q-.206-22.836-.412-45.671a4.054,4.054,0,0,1,.671-2.371,2.092,2.092,0,0,1,1.807-1.005l8.953-.01a9.5,9.5,0,0,1,7.49,3.761c2.371,3.231,2.97,7.736,3.033,11.664l.007.336c.1,4.1-.424,8.67-2.705,12.143a10.907,10.907,0,0,1-7.753,4.758c-1.74.176-2.611.257-4.354.4q.1,7.645.2,15.291a3.5,3.5,0,0,1-.99,2.64,3.958,3.958,0,0,1-2.437,1.17,3.285,3.285,0,0,1-2.46-.649A2.958,2.958,0,0,1,297.392,274.414Zm6.626-24.488c1.736-.109,2.6-.169,4.336-.3,3.42-.34,3.919-4.512,3.815-7.225-.005-.3-.008-.455-.013-.759.012-2.6-.6-6.822-4.03-6.773-1.721.053-2.581.077-4.3.121q.1,7.469.195,14.937Z" transform="translate(-197.015 -145.772)" fill="url(#linear-gradient-29)"/>
      <path id="Path_78" data-name="Path 78" d="M367.761,258.606q-.186-8.823-.373-17.646c.022-4.044.156-8.631,2.648-11.981a9.354,9.354,0,0,1,7.615-3.758,10.963,10.963,0,0,1,7.821,3.353c2.418,2.71,2.929,6.734,3.139,10.246q.181,7.651.363,15.3c-.045,3.89-.505,8-2.61,11.322a13.982,13.982,0,0,1-7.606,5.96c-2.691.711-5.578.775-7.816-1.55C368.218,267.028,367.82,262.3,367.761,258.606Zm6.788-1.209c-.061,2.235.8,6.447,4,5.487,3.023-.907,3.854-4.276,3.732-7.121q-.2-8.08-.393-16.16c0-2.563-.869-6-4.037-5.859-3.222.143-3.871,4.113-3.7,6.639Q374.352,248.89,374.549,257.4Z" transform="translate(-243.723 -145.681)" fill="url(#linear-gradient-30)"/>
      <path id="Path_79" data-name="Path 79" d="M432.7,228.818a6.425,6.425,0,0,1,.455-2.7,1.6,1.6,0,0,1,1.487-1.14q9.337-.031,18.675-.069a1.663,1.663,0,0,1,1.514.862,3.836,3.836,0,0,1,.518,2.027,4.22,4.22,0,0,1-.534,2.168,1.876,1.876,0,0,1-1.472,1.017q-2.949.3-5.9.568.178,13.3.355,26.609a3.273,3.273,0,0,1-.923,2.2,6.871,6.871,0,0,1-2.261,1.717,3.531,3.531,0,0,1-2.295.4,1.329,1.329,0,0,1-1-1.463l-.571-28.879q-2.965.249-5.933.475a1.544,1.544,0,0,1-1.512-1.022,6.38,6.38,0,0,1-.6-2.774Z" transform="translate(-287.045 -145.473)" fill="url(#linear-gradient-31)"/>
      <path id="Path_80" data-name="Path 80" d="M36.155,173.549h-7.67a3.684,3.684,0,0,1,0-7.368h7.67a3.684,3.684,0,0,1,0,7.368Z" transform="translate(-16.454 -106.516)" fill="url(#linear-gradient-32)"/>
      <path id="Path_81" data-name="Path 81" d="M450.572,173.549H442.9a3.684,3.684,0,0,1,0-7.368h7.67a3.684,3.684,0,0,1,0,7.368Z" transform="translate(-291.374 -106.516)" fill="url(#linear-gradient-33)"/>
      <path id="Path_82" data-name="Path 82" d="M104.352,23.319,98.929,17.9a3.684,3.684,0,0,1,5.21-5.21l5.424,5.424a3.684,3.684,0,1,1-5.21,5.21Z" transform="translate(-64.914 -3.973)" fill="url(#linear-gradient-34)"/>
      <path id="Path_83" data-name="Path 83" d="M380.134,23.319l5.424-5.424a3.684,3.684,0,0,0-5.21-5.21l-5.424,5.424a3.684,3.684,0,0,0,5.21,5.21Z" transform="translate(-248.006 -3.973)" fill="url(#linear-gradient-35)"/>
      <path id="Path_84" data-name="Path 84" d="M249.806,432.1V407.152a4.677,4.677,0,1,0-9.354,0V432.1a4.677,4.677,0,0,0,9.354,0Z" transform="translate(-159.515 -263.27)" fill="url(#linear-gradient-36)"/>
      <path id="Path_85" data-name="Path 85" d="M79.324,396.354,90.58,385.1a4.677,4.677,0,1,0-6.614-6.614L72.709,389.74a4.677,4.677,0,0,0,6.614,6.614Z" transform="translate(-47.327 -246.446)" fill="url(#linear-gradient-37)"/>
      <path id="Path_86" data-name="Path 86" d="M396.408,404.011l4.89,4.89a4.677,4.677,0,0,0,6.614-6.614l-4.89-4.89a4.677,4.677,0,0,0-6.614,6.614Z" transform="translate(-262.065 -258.993)" fill="url(#linear-gradient-38)"/>
      <path id="Path_87" data-name="Path 87" d="M147.172,443.17a3.39,3.39,0,0,1,1.514,4.652l-5.087,9.5a3.389,3.389,0,1,1-6.046-3.065l5.156-9.637a3.389,3.389,0,0,1,4.462-1.453Z" transform="translate(-91.009 -290.043)" fill="url(#linear-gradient-39)"/>
      <path id="Path_88" data-name="Path 88" d="M182.624,400.051a3.376,3.376,0,0,1-.368,1.531l-.682,1.273a3.39,3.39,0,0,1-5.978-3.2l.609-1.139a3.392,3.392,0,0,1,6.417,1.534Z" transform="translate(-116.225 -259.413)" fill="url(#linear-gradient-40)"/>
      <path id="Path_89" data-name="Path 89" d="M311.8,401.579l13.441,25.113a3.391,3.391,0,1,0,6.049-3.066l-13.441-25.113a3.391,3.391,0,1,0-6.049,3.065Z" transform="translate(-206.602 -259.409)" fill="url(#linear-gradient-41)"/>
    </g>
  </svg>
  