<svg xmlns="http://www.w3.org/2000/svg" width="33.16" height="32.47" viewBox="0 0 33.16 32.47">
    <g id="tickets" transform="translate(0 -5.329)">
      <path id="Path_165" data-name="Path 165" d="M135.378,7.308,132.52,5.329a1.722,1.722,0,0,1-2.25.253L115.946,26.271a1.722,1.722,0,0,1,.555,2.2l2.858,1.979a1.722,1.722,0,0,1,2.25-.253h0a1.722,1.722,0,0,1,.555,2.2l2.858,1.979a1.722,1.722,0,0,1,2.25-.253h0L141.6,13.424h0a1.722,1.722,0,0,1-.555-2.2L138.183,9.25a1.722,1.722,0,0,1-2.25.253h0A1.722,1.722,0,0,1,135.378,7.308Z" transform="translate(-108.437)" fill="#f2cc7b"/>
      <rect id="Rectangle_74" data-name="Rectangle 74" width="17.179" height="9.842" transform="matrix(-0.569, 0.822, -0.822, -0.569, 28.103, 17.272)" fill="#f25f60"/>
      <path id="Path_166" data-name="Path 166" d="M256.373,208.783l2.4.719,1.426-2.059.057,2.5,2.4.72-2.364.828.057,2.5-1.518-1.992-2.364.828,1.426-2.059Z" transform="translate(-239.769 -189.024)" fill="#f2f2f2"/>
      <path id="Path_167" data-name="Path 167" d="M124.418,85.34l5.419-23.095-1.694-.4.144-1.5-.307-.072L115.946,77.663a1.722,1.722,0,0,1,.555,2.2l2.858,1.979a1.722,1.722,0,0,1,2.25-.253h0a1.722,1.722,0,0,1,.555,2.2Z" transform="translate(-108.437 -51.392)" opacity="0.1"/>
      <path id="Path_168" data-name="Path 168" d="M11.134,47.884,7.75,47.09a1.722,1.722,0,0,1-2,1.06L0,72.648a1.722,1.722,0,0,1,1.321,1.839l3.385.794a1.722,1.722,0,0,1,2-1.06h0a1.722,1.722,0,0,1,1.321,1.839l3.385.794a1.722,1.722,0,0,1,2-1.06h0l5.749-24.5h0a1.722,1.722,0,0,1-1.321-1.839l-3.385-.794a1.722,1.722,0,0,1-2,1.06h0A1.722,1.722,0,0,1,11.134,47.884Z" transform="translate(0 -39.056)" fill="#ffd782"/>
      <g id="Group_69" data-name="Group 69" transform="translate(2.361 12.103)">
        <path id="Path_169" data-name="Path 169" d="M68.848,111.287a.563.563,0,0,1-.128-.015l-1.088-.255a.559.559,0,0,1,.255-1.088l1.088.255a.559.559,0,0,1-.127,1.1Z" transform="translate(-65.21 -109.913)" fill="#ff6465"/>
        <path id="Path_170" data-name="Path 170" d="M126,124.7a.564.564,0,0,1-.128-.015l-2.247-.527a.559.559,0,0,1,.255-1.088l2.247.527a.559.559,0,0,1-.127,1.1Zm-4.495-1.055a.563.563,0,0,1-.128-.015l-2.247-.527a.559.559,0,1,1,.255-1.088l2.247.527a.559.559,0,0,1-.127,1.1Z" transform="translate(-113.375 -121.215)" fill="#ff6465"/>
        <path id="Path_171" data-name="Path 171" d="M259.144,155.941a.562.562,0,0,1-.128-.015l-1.088-.255a.559.559,0,1,1,.255-1.088l1.088.255a.559.559,0,0,1-.127,1.1Z" transform="translate(-243.181 -151.675)" fill="#ff6465"/>
        <rect id="Rectangle_75" data-name="Rectangle 75" width="17.18" height="9.842" transform="matrix(-0.228, 0.974, -0.974, -0.228, 13.507, 5.572)" fill="#ff6465"/>
      </g>
      <path id="Path_172" data-name="Path 172" d="M93.83,258.472l2.5-.209.572-2.438.97,2.309,2.5-.209-1.9,1.636.97,2.309-2.142-1.3-1.9,1.636.572-2.438Z" transform="translate(-87.753 -234.272)" fill="#fff"/>
      <g id="Group_70" data-name="Group 70" transform="translate(19.188 8.036)">
        <path id="Path_173" data-name="Path 173" d="M297.74,48.884a.556.556,0,0,1-.318-.1l-.919-.636a.559.559,0,1,1,.636-.919l.919.636a.559.559,0,0,1-.319,1.018Z" transform="translate(-296.263 -47.13)" fill="#f25f60"/>
        <path id="Path_174" data-name="Path 174" d="M346.009,82.3a.556.556,0,0,1-.318-.1l-1.9-1.314a.559.559,0,1,1,.636-.919l1.9,1.314a.559.559,0,0,1-.319,1.018Zm-3.8-2.628a.556.556,0,0,1-.318-.1L340,78.26a.559.559,0,0,1,.636-.919l1.9,1.314a.559.559,0,0,1-.319,1.018Z" transform="translate(-336.94 -75.291)" fill="#f25f60"/>
        <path id="Path_175" data-name="Path 175" d="M458.448,160.147a.556.556,0,0,1-.318-.1l-.919-.636a.559.559,0,1,1,.636-.919l.919.636a.559.559,0,0,1-.319,1.018Z" transform="translate(-446.562 -151.186)" fill="#f25f60"/>
      </g>
    </g>
  </svg>
  